<?xml version="1.0" encoding="iso-8859-1"?>
<!-- Uploaded to: SVG Repo, www.svgrepo.com, Generator: SVG Repo Mixer Tools -->
<svg height="800px" width="800px" version="1.1" id="Layer_1" xmlns="http://www.w3.org/2000/svg" xmlns:xlink="http://www.w3.org/1999/xlink" 
	 viewBox="0 0 512 512" xml:space="preserve">
<path style="fill:#259245;" d="M73.698,57.873H50.63v292.202h445.992V57.873H104.456c-4.247,0-7.689-3.441-7.689-7.688h-15.38
	C81.387,54.432,77.945,57.873,73.698,57.873z M269.763,87.126c2.389-1.387,5.336-1.387,7.725,0l189.674,110.198
	c2.369,1.376,3.828,3.909,3.828,6.65c0,2.739-1.458,5.272-3.828,6.65l-29.96,17.407c-3.672,2.132-8.379,0.886-10.513-2.786l0,0
	l-13.297,7.726l0,0c2.133,3.671,0.886,8.379-2.786,10.513l-133.118,77.34c-1.194,0.692-2.527,1.04-3.863,1.04
	s-2.668-0.347-3.863-1.04L80.088,210.624c-2.368-1.377-3.827-3.91-3.827-6.65c0-2.74,1.458-5.273,3.827-6.65L269.763,87.126z"/>
<path d="M504.311,42.494H104.456c-4.247,0-7.689,3.442-7.689,7.69c0,4.247,3.442,7.688,7.689,7.688h392.165v292.202H50.63V57.873
	h23.069c4.247,0,7.689-3.441,7.689-7.688c0-4.248-3.442-7.69-7.689-7.69H42.941c-4.247,0-7.689,3.442-7.689,7.69v307.579
	c0,4.247,3.442,7.69,7.689,7.69h461.37c4.247,0,7.689-3.443,7.689-7.69V50.184C512,45.936,508.558,42.494,504.311,42.494z"/>
<path style="fill:#FFE000;" d="M429.476,214.732l18.517-10.758L273.626,102.668L99.259,203.974l174.367,101.306l129.255-75.097
	c3.67-2.132,8.375-0.886,10.512,2.787l13.297-7.726C424.557,221.573,425.804,216.865,429.476,214.732z M273.626,274.239
	c-38.745,0-70.266-31.52-70.266-70.265s31.521-70.265,70.266-70.265s70.265,31.52,70.265,70.265c0,11.012-2.553,21.438-7.087,30.725
	c-0.246,0.733-0.6,1.427-1.057,2.059C323.948,259.027,300.535,274.239,273.626,274.239z"/>
<path d="M76.261,203.974c0,2.739,1.458,5.272,3.827,6.65l189.675,110.198c1.194,0.692,2.527,1.04,3.863,1.04s2.668-0.347,3.863-1.04
	l133.118-77.34c3.673-2.134,4.919-6.842,2.786-10.513l0,0c-2.136-3.674-6.842-4.919-10.512-2.787l-129.255,75.097L99.259,203.974
	l174.367-101.306l174.367,101.306l-18.517,10.758c-3.672,2.134-4.919,6.842-2.786,10.513l0,0c2.134,3.673,6.84,4.918,10.513,2.786
	l29.96-17.407c2.369-1.377,3.828-3.91,3.828-6.65c0-2.74-1.458-5.273-3.828-6.65L277.487,87.126c-2.389-1.387-5.336-1.387-7.725,0
	L80.088,197.324C77.719,198.701,76.261,201.234,76.261,203.974z"/>
<g>
	<path style="fill:#103B9B;" d="M283.718,179.461c17.702,7.265,32.826,19.302,43.844,34.619c0.614-3.278,0.949-6.654,0.949-10.107
		c0-30.265-24.623-54.887-54.887-54.887c-18.917,0-35.631,9.619-45.504,24.225C246.748,170.133,265.993,172.187,283.718,179.461z"/>
	<path style="fill:#103B9B;" d="M277.879,193.688c-18.365-7.536-38.653-8.496-57.553-2.793c-1.029,4.194-1.587,8.571-1.587,13.079
		c0,30.264,24.623,54.887,54.887,54.887c20.008,0,37.544-10.767,47.136-26.804C311.311,214.755,296.217,201.215,277.879,193.688z"/>
</g>
<g>
	<path style="fill:#FFFFFF;" d="M335.747,236.759c0.456-0.632,0.811-1.327,1.057-2.059
		C336.465,235.393,336.108,236.077,335.747,236.759z"/>
	<path style="fill:#FFFFFF;" d="M277.879,193.688c18.337,7.527,33.431,21.067,42.882,38.368c3.261-5.454,5.595-11.517,6.802-17.975
		c-11.018-15.318-26.142-27.355-43.844-34.619c-17.726-7.275-36.971-9.328-55.598-6.15c-3.568,5.282-6.233,11.217-7.795,17.583
		C239.226,185.193,259.516,186.152,277.879,193.688z"/>
</g>
<path d="M343.891,203.974c0-38.745-31.52-70.265-70.265-70.265s-70.266,31.52-70.266,70.265s31.521,70.265,70.266,70.265
	c26.909,0,50.322-15.212,62.122-37.481c0.362-0.681,0.717-1.365,1.057-2.059C341.338,225.411,343.891,214.986,343.891,203.974z
	 M273.626,258.861c-30.264,0-54.887-24.623-54.887-54.887c0-4.508,0.558-8.884,1.587-13.079c1.563-6.366,4.227-12.301,7.795-17.583
	c9.873-14.605,26.587-24.225,45.504-24.225c30.264,0,54.887,24.622,54.887,54.887c0,3.453-0.336,6.829-0.949,10.107
	c-1.206,6.457-3.54,12.521-6.802,17.975C311.169,248.094,293.634,258.861,273.626,258.861z"/>
<path style="fill:#2E3033;" d="M21.013,482.462c-6.442,0-11.685-5.242-11.685-11.685V41.115c0-6.383,5.194-11.577,11.577-11.577
	h1.527c6.444,0,11.685,5.242,11.685,11.685v429.552c0,6.444-5.242,11.685-11.685,11.685h-1.419V482.462z"/>
<path d="M22.432,20.211h-1.527C9.378,20.211,0,29.588,0,41.115v429.661c0,11.587,9.426,21.013,21.013,21.013h1.418
	c11.587,0,21.013-9.426,21.013-21.013V41.223C43.444,29.637,34.018,20.211,22.432,20.211z M27.898,470.777
	c0,3.014-2.452,5.466-5.466,5.466h-1.418c-3.014,0-5.466-2.452-5.466-5.466V41.115c0-2.955,2.403-5.358,5.358-5.358h1.527
	c3.014,0,5.466,2.452,5.466,5.466v429.553H27.898z"/>
</svg>