<svg width="128" height="128" viewBox="0 0 128 128" fill="none" xmlns="http://www.w3.org/2000/svg">
<path d="M74.518 125.872C71.251 129.989 64.614 127.734 64.541 122.475L63.385 45.569H115.1C124.465 45.569 129.687 56.386 123.863 63.718L74.518 125.872Z" fill="url(#paint0_linear_18_4)"/>
<path d="M74.518 125.872C71.251 129.989 64.614 127.734 64.541 122.475L63.385 45.569H115.1C124.465 45.569 129.687 56.386 123.863 63.718L74.518 125.872Z" fill="#A7A7AF"/>
<path d="M53.4841 2.128C56.7511 -1.989 63.3891 0.266005 63.4611 5.524L63.9691 82.431H12.9021C3.53712 82.431 -1.68488 71.614 4.13812 64.282L53.4841 2.128Z" fill="#A7A7AF"/>
<defs>
<linearGradient id="paint0_linear_18_4" x1="63.3897" y1="62.6263" x2="109.35" y2="81.9016" gradientUnits="userSpaceOnUse">
<stop stop-color="#249361"/>
<stop offset="1" stop-color="#3ECF8E"/>
</linearGradient>
</defs>
</svg>
